<svg width="32" height="32" viewBox="0 0 32 32" fill="none" xmlns="http://www.w3.org/2000/svg">
    <rect width="32" height="32" rx="8" fill="#FFFFFF"/>
    <path d="M16 4C9.37258 4 4 9.37258 4 16C4 22.6274 9.37258 28 16 28C22.6274 28 28 22.6274 28 16C28 9.37258 22.6274 4 16 4ZM16 7C20.9706 7 25 11.0294 25 16C25 20.9706 20.9706 25 16 25C11.0294 25 7 20.9706 7 16C7 11.0294 11.0294 7 16 7ZM11.5 13.5C12.3284 13.5 13 12.8284 13 12C13 11.1716 12.3284 10.5 11.5 10.5C10.6716 10.5 10 11.1716 10 12C10 12.8284 10.6716 13.5 11.5 13.5ZM20.5 13.5C21.3284 13.5 22 12.8284 22 12C22 11.1716 21.3284 10.5 20.5 10.5C19.6716 10.5 19 11.1716 19 12C19 12.8284 19.6716 13.5 20.5 13.5ZM16 21C14.1599 21 12.5539 20.097 11.5 18.6602C11.5 18.6602 11 19 11 19.5C11 20 11.5 20.5 11.5 20.5C12.5539 21.903 14.1599 23 16 23C17.8401 23 19.4461 21.903 20.5 20.5C20.5 20.5 21 20 21 19.5C21 19 20.5 18.6602 20.5 18.6602C19.4461 20.097 17.8401 21 16 21Z" fill="#007bff"/>
    <path d="M26.2929 7.70711C26.6834 7.31658 26.6834 6.68342 26.2929 6.29289C25.9024 5.90237 25.2692 5.90237 24.8787 6.29289L23.4645 7.70711C23.074 8.09763 23.074 8.7308 23.4645 9.12132C23.8551 9.51184 24.4882 9.51184 24.8787 9.12132L26.2929 7.70711Z" fill="#FFD700"/>
    <path d="M5.12132 9.12132C5.51184 9.51184 6.14501 9.51184 6.53553 9.12132C6.92606 8.7308 6.92606 8.09763 6.53553 7.70711L5.12132 6.29289C4.7308 5.90237 4.09763 5.90237 3.70711 6.29289C3.31658 6.68342 3.31658 7.31658 3.70711 7.70711L5.12132 9.12132Z" fill="#FFD700"/>
</svg>